<svg xmlns="http://www.w3.org/2000/svg" width="24" height="24" viewBox="0 0 24 24" fill="none">
  <path d="M20.6667 6.66667H3.33333C2.97971 6.66667 2.64057 6.52619 2.39052 6.27614C2.14048 6.02609 2 5.68696 2 5.33333C2 4.97971 2.14048 4.64057 2.39052 4.39052C2.64057 4.14048 2.97971 4 3.33333 4H20.6667C21.0203 4 21.3594 4.14048 21.6095 4.39052C21.8595 4.64057 22 4.97971 22 5.33333C22 5.68696 21.8595 6.02609 21.6095 6.27614C21.3594 6.52619 21.0203 6.66667 20.6667 6.66667ZM20.6667 20H3.33333C2.97971 20 2.64057 19.8595 2.39052 19.6095C2.14048 19.3594 2 19.0203 2 18.6667C2 18.313 2.14048 17.9739 2.39052 17.7239C2.64057 17.4738 2.97971 17.3333 3.33333 17.3333H20.6667C21.0203 17.3333 21.3594 17.4738 21.6095 17.7239C21.8595 17.9739 22 18.313 22 18.6667C22 19.0203 21.8595 19.3594 21.6095 19.6095C21.3594 19.8595 21.0203 20 20.6667 20ZM20.6667 13.3333H3.33333C2.97971 13.3333 2.64057 13.1929 2.39052 12.9428C2.14048 12.6928 2 12.3536 2 12C2 11.6464 2.14048 11.3072 2.39052 11.0572C2.64057 10.8071 2.97971 10.6667 3.33333 10.6667H20.6667C21.0203 10.6667 21.3594 10.8071 21.6095 11.0572C21.8595 11.3072 22 11.6464 22 12C22 12.3536 21.8595 12.6928 21.6095 12.9428C21.3594 13.1929 21.0203 13.3333 20.6667 13.3333Z" fill="white"/>
</svg>